PathFileType	4	(X/Y/Z)	E:\Marcel_BSc\Ayumi_22_01_2025\22-01-2025\sumo_dl_1.trc
DataRate	CameraRate	NumFrames	NumMarkers	Units	OrigDataRate	OrigDataStartFrame	OrigNumFrames
200.0	200.0	4	47	mm	200.0	822	2190	
Frame#	Time	FHD			LBHD			RBHD			RBAR			LBAR			RSACR			LSACR			USACR			C7			CLAV			T10			RSHO			LSHO			LTHI1			LTHI3			LTHI2			LTIB1			LTIB2			LTIB3			LMMAL			LLMAL			LHEE			LMT1			LMT5			LMT3			RTHI1			RTHI2			RTHI3			RTIB1			RTIB3			RTIB2			RLMAL			RMMAL			RHEE			RMT5			RMT1			RMT3			LDUPA			LMUPA			LUUPA			LRAD			RUL			RRAD			RUFIN			RMUPA			RDUPA			RUUPA			
		X1	Y1	Z1	X2	Y2	Z2	X3	Y3	Z3	X4	Y4	Z4	X5	Y5	Z5	X6	Y6	Z6	X7	Y7	Z7	X8	Y8	Z8	X9	Y9	Z9	X10	Y10	Z10	X11	Y11	Z11	X12	Y12	Z12	X13	Y13	Z13	X14	Y14	Z14	X15	Y15	Z15	X16	Y16	Z16	X17	Y17	Z17	X18	Y18	Z18	X19	Y19	Z19	X20	Y20	Z20	X21	Y21	Z21	X22	Y22	Z22	X23	Y23	Z23	X24	Y24	Z24	X25	Y25	Z25	X26	Y26	Z26	X27	Y27	Z27	X28	Y28	Z28	X29	Y29	Z29	X30	Y30	Z30	X31	Y31	Z31	X32	Y32	Z32	X33	Y33	Z33	X34	Y34	Z34	X35	Y35	Z35	X36	Y36	Z36	X37	Y37	Z37	X38	Y38	Z38	X39	Y39	Z39	X40	Y40	Z40	X41	Y41	Z41	X42	Y42	Z42	X43	Y43	Z43	X44	Y44	Z44	X45	Y45	Z45	X46	Y46	Z46	X47	Y47	Z47	
822	4.1	-165.44855	929.27441	-985.61761	-146.29469	933.14008	-931.979	-116.97865	934.0777	-1062.0602	230.27791	235.44646	-2091.7866	236.14465	248.78098	129.22903	525.20575	699.89191	-1035.0839	527.60388	705.45404	-963.07672	518.24878	712.77057	-999.56067	106.30235	933.01685	-980.88806	97.678833	772.32043	-988.37164	367.97739	830.17554	-1003.2811	64.153786	791.63654	-1131.0145	89.422363	788.09363	-828.25659	413.48444	511.48318	-663.20697	372.30618	467.84134	-635.61652	356.34491	515.58014	-628.97302	297.03683	241.31203	-522.09894	338.86072	237.10977	-549.74615	314.94907	179.5509	-530.22223	272.48718	70.703056	-584.67188	329.77243	72.971817	-535.7796	335.51553	33.919613	-591.99207	185.3961	44.674637	-468.14099	252.87247	27.816195	-423.50589	206.44041	40.767426	-440.77615	403.74609	494.12775	-1303.1061	348.18564	501.43164	-1338.7583	361.00751	452.68347	-1330.366	293.0191	275.38971	-1447.7548	313.13135	212.96768	-1442.0675	336.93472	271.46536	-1423.0265	331.8869	74.491821	-1438.9546	259.50153	70.855492	-1402.3324	339.81158	30.272449	-1384.0138	253.04506	26.262869	-1553.5914	195.04707	34.690598	-1519.2277	216.43887	33.454655	-1541.969	238.49049	629.93103	-774.06573	189.57385	620.41388	-771.41669	177.60394	681.15155	-770.79175	263.25299	310.48151	-726.54016	181.40649	304.51117	-1269.8949	182.06567	298.50095	-1208.2194	190.15231	223.26009	-1207.7157	132.05301	703.44293	-1212.0326	149.44617	645.18079	-1228.0051	177.34976	719.23071	-1225.3075
823	4.105	-164.02654	932.49854	-986.10956	-144.93391	936.09344	-932.43793	-115.2319	936.62189	-1062.4061	229.93695	235.48634	-2091.7612	235.84113	248.75867	129.24347	525.52881	698.84869	-1035.0797	528.05908	704.26892	-963.13904	518.73822	711.72681	-999.52216	107.46339	933.39868	-980.92603	98.230247	772.69604	-988.45758	368.68918	829.84882	-1003.227	64.765274	791.85052	-1131.1104	90.018967	788.51788	-828.19006	413.52292	510.91791	-662.92871	372.16116	467.45993	-635.29254	356.42395	515.31812	-628.57843	297.51419	241.28169	-522.04498	339.11502	237.05737	-550.03064	315.35159	179.50798	-530.34583	272.4921	70.717369	-584.58582	329.8176	72.954597	-535.75055	335.49536	33.935936	-591.98126	185.38708	44.68438	-468.1326	253.07874	27.750841	-423.53665	206.45863	40.765759	-440.79263	403.53452	493.87878	-1303.3728	348.08524	500.99106	-1338.8878	360.85309	452.35187	-1330.4482	292.75119	275.34863	-1447.97	313.10162	212.88989	-1442.2262	337.1337	271.44635	-1423.2067	331.81607	74.500351	-1438.9974	259.38147	70.877724	-1402.3616	339.76538	30.275459	-1384.0035	253.05241	26.333014	-1553.5961	194.99979	34.680485	-1519.2605	216.40924	33.430233	-1542.0027	238.99039	630.05493	-773.91968	190.10332	620.64575	-771.36877	178.06262	681.33337	-770.8009	262.82791	311.15793	-726.84131	181.33913	304.61249	-1269.8066	181.95743	298.57977	-1208.1273	190.0027	223.34198	-1207.6556	132.85242	703.67212	-1212.0524	150.16866	645.33954	-1227.9601	178.16484	719.41132	-1225.3198
824	4.11	-162.57887	935.73474	-986.6543	-144.01692	938.9386	-933.01263	-113.59522	939.16931	-1062.8743	229.6274	235.61946	-2091.6802	235.52737	248.70992	129.26552	525.94733	697.73535	-1035.0627	528.461	703.11542	-963.05847	519.24377	710.7948	-999.47272	108.64373	933.77612	-980.95996	98.780197	773.04077	-988.46057	369.57755	829.5675	-1003.1166	65.951729	792.85413	-1131.3021	90.632965	788.88885	-828.20465	413.20731	510.26868	-662.74194	371.78851	466.9935	-634.97833	356.39096	514.98157	-628.17395	297.86694	241.36392	-521.94788	339.2973	237.05307	-550.25598	315.54791	179.49406	-530.37927	272.45471	70.751968	-584.52893	329.81857	72.962601	-535.7088	335.4823	33.957375	-591.97638	185.4158	44.67802	-468.11215	253.80685	27.530441	-423.65594	206.42566	40.705235	-440.65695	403.50369	493.46191	-1303.3218	348.07269	500.84497	-1338.8876	360.80341	452.08063	-1330.4458	292.36728	275.33472	-1448.0927	312.74475	212.817	-1442.3359	336.978	271.40921	-1423.4277	331.69327	74.513229	-1439.0299	259.24011	70.799698	-1402.3214	339.74167	30.261848	-1384.0013	253.03828	26.603254	-1553.7067	195.02884	34.708694	-1519.2729	216.40303	33.434738	-1542.0203	239.50674	630.2702	-773.76813	190.59784	620.88239	-771.31781	178.60129	681.54657	-770.7663	262.54395	311.28061	-726.83929	181.26364	304.77808	-1269.7062	181.86751	298.70633	-1208.0402	189.82083	223.44087	-1207.6368	133.70454	703.97406	-1212.0225	150.97026	645.49493	-1227.9	179.08531	719.50934	-1225.2867
825	4.115	-161.07065	938.91602	-987.22748	-142.06592	941.92316	-933.41608	-111.8189	941.68945	-1063.2795	229.41545	235.42268	-2091.7229	235.27875	248.71283	129.26169	526.42834	696.64594	-1035.0289	528.93054	702.22681	-962.99408	519.79205	709.76544	-999.46222	109.76771	934.18597	-980.99719	99.0746	773.14905	-988.35712	370.3764	829.12225	-1003.2513	66.500877	793.69427	-1131.3129	91.492821	789.3584	-828.16211	413.09058	509.69296	-662.38831	371.41635	466.62857	-634.68756	356.22662	514.70105	-627.83984	298.01956	241.43228	-521.89532	339.45596	237.01341	-550.38593	315.63382	179.49934	-530.35956	272.40189	70.785164	-584.47009	329.84933	72.982155	-535.63361	335.46661	33.969513	-591.97681	185.42671	44.67297	-468.09982	253.85201	27.516689	-423.67242	206.46107	40.698956	-440.6687	403.62183	492.98636	-1303.2831	348.19016	500.56647	-1338.7805	360.81595	451.78247	-1330.405	292.10333	275.2594	-1448.1798	312.49878	212.69907	-1442.389	336.82571	271.36707	-1423.6232	331.61206	74.495499	-1439.0186	259.13757	70.698997	-1402.2917	339.69458	30.293488	-1383.9827	253.04213	26.714703	-1553.7306	194.95691	34.679394	-1519.3024	216.3508	33.413013	-1542.0659	239.9493	630.41602	-773.66455	191.01834	621.10406	-771.28363	179.25044	681.84772	-770.73993	262.29526	311.40109	-726.80731	180.78258	304.74698	-1269.9648	181.81314	298.87454	-1207.9408	189.62451	223.58464	-1207.5685	134.69014	704.07434	-1212.0742	151.71773	645.76013	-1227.7911	180.058	719.64685	-1225.2327
